<svg xmlns="http://www.w3.org/2000/svg" width="100" height="100" viewBox="0 0 48 48" stroke-linejoin="round" stroke-linecap="round">
  <g transform="translate(0,2)">
    <path class="heart" 
      d="M40.256,15.139
      c-0.852-2.036-2.433-3.864-4.561-4.713
      c-4.162-1.662-9.367,0.565-11.695,4.043
      c-2.328-3.479-7.533-5.706-11.695-4.043
      c-2.128,0.849-3.709,2.678-4.561,4.713
      c-1.674,3.999-0.683,8.676,1.681,12.349
      C12.784,32.705,18.411,36.401,24.000,39.247
      c5.589-2.847,11.217-6.542,14.575-11.759
      C40.939,23.816,41.929,19.139,40.256,15.139
    z"
    fill="#FE251B"/>
    <path
      d="M 8.3 26 
      L19 26 
      L21 18
      L24 30
      L27.5 16
      L30 26
      L31.5 20
      L41.2 20
      "
      stroke="#FFFFFF"
      stroke-width="1"
      fill="none"/>
  </g>
  <circle 
    cx="24" 
    cy="24" 
    r="22" 
    stroke="#14434A" 
    stroke-width="1" 
    fill="transparent"
  />
  <rect 
    x="2" 
    y="2" 
    width="10" 
    height="10"
    rx="2"
    ry="2"
    stroke-width="0.4"
    stroke="#14434A"
    fill="#87CEEB"
  />
  <rect 
    x="36" 
    y="2" 
    width="10" 
    height="10"
    rx="2"
    ry="2"
    stroke-width="0.4"
    stroke="#14434A"
    fill="#87CEEB"
  />
  <rect 
    x="2" 
    y="36" 
    width="10" 
    height="10"
    rx="2"
    ry="2"
    stroke-width="0.4"
    stroke="#14434A"
    fill="#87CEEB"
  />
  <rect 
    x="36" 
    y="36" 
    width="10" 
    height="10"
    rx="2"
    ry="2"
    stroke-width="0.4"
    stroke="#14434A"
    fill="#87CEEB"
  />

</svg>
